<?xml version="1.0" encoding="UTF-8" standalone="no"?>
<!-- Created with Inkscape (http://www.inkscape.org/) -->

<svg
   width="80"
   height="80"
   viewBox="0 0 21.166666 21.166667"
   version="1.1"
   id="svg1"
   xml:space="preserve"
   inkscape:version="1.4 (e7c3feb1, 2024-10-09)"
   sodipodi:docname="black-fat-cat.svg"
   xmlns:inkscape="http://www.inkscape.org/namespaces/inkscape"
   xmlns:sodipodi="http://sodipodi.sourceforge.net/DTD/sodipodi-0.dtd"
   xmlns:xlink="http://www.w3.org/1999/xlink"
   xmlns="http://www.w3.org/2000/svg"
   xmlns:svg="http://www.w3.org/2000/svg"><sodipodi:namedview
     id="namedview1"
     pagecolor="#000000"
     bordercolor="#000000"
     borderopacity="0.25"
     inkscape:showpageshadow="2"
     inkscape:pageopacity="0.0"
     inkscape:pagecheckerboard="0"
     inkscape:deskcolor="#d1d1d1"
     inkscape:document-units="mm"
     inkscape:zoom="4.4529167"
     inkscape:cx="44.802096"
     inkscape:cy="49.630392"
     inkscape:window-width="1512"
     inkscape:window-height="831"
     inkscape:window-x="0"
     inkscape:window-y="496"
     inkscape:window-maximized="1"
     inkscape:current-layer="layer1" /><defs
     id="defs1" /><g
     inkscape:label="Warstwa 1"
     inkscape:groupmode="layer"
     id="layer1"
     style="display:inline"><rect
       style="fill:none;stroke:#ffffff;stroke-width:0.523205"
       id="rect2"
       width="14.599799"
       height="14.421503"
       x="3.2834337"
       y="3.3725817"
       ry="2.2938929"
       inkscape:label="frame" /><path
       id="path2"
       style="fill:#ffffff;stroke:none;stroke-width:0.618394"
       d="m 7.5774707,6.0345793 -0.1291911,3.4266642 0.00982,0.00103 A 3.6452596,2.9921505 0 0 0 7.0126473,10.879762 3.6452596,2.9921505 0 0 0 10.657903,13.871828 3.6452596,2.9921505 0 0 0 14.303158,10.879762 3.6452596,2.9921505 0 0 0 13.499073,9.0059742 L 13.804997,6.0345793 11.844394,8.0509937 A 3.6452596,2.9921505 0 0 0 10.657903,7.8876962 3.6452596,2.9921505 0 0 0 9.5768319,8.0256723 Z m 5.3557453,3.905188 c 0.186549,0.00103 0.398119,0.099636 0.634587,0.2955897 -0.06554,1.297766 -1.136725,0.878431 -1.332219,0.697115 l -0.06201,-0.06925 C 12.34749,10.24567 12.600672,9.9379251 12.933216,9.9397673 Z m -2.923852,0.00517 c 0.357877,0.00117 0.637922,0.335014 0.839742,1.00149 -0.712813,0.417198 -1.2157213,0.214244 -1.5089522,-0.608232 l 0.042891,-0.12144 C 9.6133238,10.034825 9.8219041,9.9443204 10.009364,9.944935 Z m 1.600419,1.631942 c 0.254302,-1.11e-4 0.662714,0.01307 0.666626,0.02946 0.02548,0.106777 -0.0253,0.196494 -0.10232,0.212907 -0.101402,0.02161 -0.08684,0.09392 -0.136942,0.15968 -0.05512,0.114259 -0.109555,0.200765 -0.173116,0.201021 -0.05753,2.32e-4 -0.126111,-0.08201 -0.145211,-0.205672 -0.02096,-0.135739 -0.08395,-0.0841 -0.164331,-0.141077 -0.06535,-0.0391 -0.13278,-0.118374 -0.143144,-0.247013 l 5.17e-4,-5.17e-4 c 0.0074,-0.0059 0.08811,-0.0087 0.197921,-0.0088 z" /><path
       style="fill:none;stroke:#ffffff;stroke-width:0.25;stroke-dasharray:none"
       d="M 4.4456758,11.764932 C 5.4015835,11.379201 6.3710452,11.237441 7.3540607,11.339651"
       id="path4"
       sodipodi:nodetypes="cc"
       inkscape:label="wibrys" /><use
       x="0"
       y="0"
       xlink:href="#path4"
       id="use4"
       transform="rotate(-10.902932,9.6868901,11.121203)" /><use
       x="0"
       y="0"
       xlink:href="#path4"
       id="use5"
       transform="matrix(-1,0,0,1,21.394826,0)" /><use
       x="0"
       y="0"
       xlink:href="#use4"
       id="use6"
       transform="matrix(-1,0,0,1,21.394826,0)" /><ellipse
       style="fill:#ffffff;stroke:none;stroke-width:0.329248;stroke-dasharray:none"
       id="path8"
       cx="10.10815"
       cy="10.583333"
       rx="0.24589506"
       ry="0.47574583" /><use
       x="0"
       y="0"
       xlink:href="#path8"
       id="use8"
       transform="translate(2.7655061)"
       style="fill:#ffffff" /></g></svg>
